Motion_pl11
version=1
nRows=10
nColumns=43
inDegrees=yes
endheader
time	pelvis_tilt	pelvis_list	pelvis_rotation	pelvis_tx	pelvis_ty	pelvis_tz	hip_flexion_r	hip_adduction_r	hip_rotation_r	knee_angle_r	ankle_angle_r	subtalar_angle_r	mtp_angle_r	hip_flexion_l	hip_adduction_l	hip_rotation_l	knee_angle_l	ankle_angle_l	subtalar_angle_l	mtp_angle_l	lumbar_extension	lumbar_bending	lumbar_rotation	neck_flexion	neck_lateral_bending	neck_rotation	arm_flex_r	arm_add_r	arm_rot_r	elbow_flex_r	pro_sup_r	wrist_flex_r	wrist_dev_r	hand_finger_flex_r	arm_flex_l	arm_add_l	arm_rot_l	elbow_flex_l	pro_sup_l	wrist_flex_l	wrist_dev_l	hand_finger_flex_l
      0.00250000	     -4.22938235	    -19.17992996	     91.95969314	     -0.00686907	      2.01419155	      1.74135394	     43.33314326	    -10.63795137	      0.34233919	    -43.70921208	     15.60202574	      5.23589954	      9.14412592	     42.23630965	     -0.22192671	     -0.91034274	    -43.05166823	     14.46089498	      8.03593574	      5.72138087	    -27.33658371	     -2.48956031	     -4.13160353	      3.85137161	      6.18897809	     -3.66701972	     41.35337082	    -44.70027445	    -22.07221763	     78.61614968	    135.50016679	     -1.57862094	     19.13317770	    -23.50345419	     31.09412225	    -39.14435208	    -31.16083696	     77.82784640	    124.54654436	     -4.47687218	     14.98599358	    -12.56517020
      0.00500000	     -4.38810290	    -19.18137129	     91.54480822	     -0.00637133	      2.01379296	      1.74183226	     43.60844488	    -10.52071048	      0.77418845	    -43.91617412	     15.21539053	      5.30793815	     11.36603294	     42.31290251	     -0.37193235	     -1.37502481	    -43.20273444	     14.25869791	      8.01858737	      6.86039398	    -27.49988040	     -2.77978344	     -3.82808943	      4.03887617	      6.07322176	     -3.68641137	     41.58578277	    -44.84950829	    -22.23293276	     78.93276383	    133.63678794	      1.16955141	     19.55111614	    -30.58236246	     31.44356099	    -39.00017599	    -31.15245655	     77.80724453	    126.42767521	     -5.94643676	     14.61906750	     -8.87603236
      0.00750000	     -4.38752463	    -19.19781004	     91.55051295	     -0.00618084	      2.01348610	      1.74222391	     43.69830847	    -10.51518464	      0.76595731	    -43.97515688	     15.24762443	      5.30872042	     11.37196270	     42.39754893	     -0.38995027	     -1.39581894	    -43.24429249	     14.27994842	      8.01560354	      6.86466744	    -27.63685851	     -2.78514811	     -3.82544205	      3.98951746	      6.07447280	     -3.68138146	     41.76102919	    -44.87855120	    -22.23005573	     79.06776157	    133.64438858	      1.16045291	     19.52177599	    -30.58649609	     31.62345249	    -39.05930809	    -31.13160411	     77.94444820	    126.42924202	     -5.97379646	     14.59671110	     -8.88738326
      0.01000000	     -4.38977994	    -19.14552278	     91.51948442	     -0.00602032	      2.01293670	      1.74269401	     43.88469135	    -10.50170369	      0.81316021	    -44.38133854	     15.31062695	      5.34321283	     11.39505915	     42.55836332	     -0.44559231	     -1.47659280	    -43.60324268	     14.30072608	      8.02151438	      6.88048551	    -27.83198161	     -2.79709327	     -3.78648857	      4.09720073	      6.05529750	     -3.64198085	     42.06970088	    -44.88921364	    -22.26227006	     79.13215266	    133.65378577	      1.19967697	     19.54543521	    -30.57506195	     31.89274684	    -39.13384939	    -31.06601429	     78.02332983	    126.45084293	     -6.01484268	     14.67692527	     -8.91178843
      0.01250000	     -4.39159169	    -19.17639207	     91.51821679	     -0.00585200	      2.01259062	      1.74314799	     43.97721417	    -10.49729168	      0.82044981	    -44.40923803	     15.33247132	      5.35407834	     11.39997600	     42.64980482	     -0.46714408	     -1.49959311	    -43.62383975	     14.32062738	      8.02261249	      6.88503972	    -27.95685800	     -2.80918367	     -3.78266145	      4.05623100	      6.05202218	     -3.63370648	     42.24744020	    -44.91772036	    -22.26499702	     79.26508402	    133.65916348	      1.19309617	     19.52558201	    -30.57714546	     32.07855535	    -39.19821159	    -31.04299848	     78.17468049	    126.45944122	     -6.03366740	     14.66682760	     -8.92038744
      0.01500000	     -4.40742008	    -19.14960021	     91.46836403	     -0.00567207	      2.01201067	      1.74374907	     44.22311364	    -10.47657929	      0.91989146	    -44.84186082	     15.37103395	      5.42490814	     11.42404729	     42.86330077	     -0.52284890	     -1.61233489	    -44.01582091	     14.33145506	      8.05335111	      6.90498997	    -28.14749197	     -2.83889857	     -3.73323283	      4.23108478	      6.03219551	     -3.58069607	     42.59012922	    -44.90912226	    -22.31869517	     79.33596050	    133.65514414	      1.26198176	     19.59398320	    -30.54905756	     32.36342768	    -39.29296054	    -30.95695852	     78.27014572	    126.51657833	     -6.04036290	     14.83964058	     -8.93611399
      0.01750000	     -4.41123529	    -19.18694238	     91.46466461	     -0.00551536	      2.01164932	      1.74424788	     44.32388584	    -10.47228623	      0.92930232	    -44.85804646	     15.38976755	      5.43773591	     11.42846837	     42.96020856	     -0.54271010	     -1.63671014	    -44.02683519	     14.35012317	      8.05913519	      6.90986919	    -28.27123653	     -2.85291549	     -3.73257967	      4.18862356	      6.03152276	     -3.57342505	     42.76145392	    -44.94068493	    -22.32474500	     79.47516118	    133.65801632	      1.25966034	     19.57929057	    -30.54835167	     32.54466043	    -39.36534581	    -30.93820676	     78.42634126	    126.53055342	     -6.05419617	     14.84272053	     -8.94313419
      0.02000000	     -4.53400472	    -19.44115313	     91.19957957	     -0.00511698	      2.01062044	      1.74523945	     44.95459300	    -10.38671338	      1.33526638	    -45.26485259	     15.38576226	      5.72645117	     11.49490790	     43.45293299	     -0.65073597	     -1.95860392	    -44.37384425	     14.34165743	      8.31262790	      6.99253179	    -28.19804649	     -3.07077524	     -3.59284799	      4.65410885	      6.03411403	     -3.47681440	     43.09477990	    -44.96810478	    -22.38270340	     79.71529571	    133.59009456	      1.73270284	     19.99586078	    -30.35188165	     32.78379221	    -39.63209638	    -30.68634577	     78.70444125	    126.81919373	     -5.91562731	     15.85230176	     -8.93654584
      0.02250000	     -4.53921438	    -19.45767120	     91.20564145	     -0.00499338	      2.01025692	      1.74570463	     45.05548900	    -10.38865329	      1.31222616	    -45.33139923	     15.40602985	      5.71518282	     11.49837786	     43.54555028	     -0.66533677	     -1.98798402	    -44.42646264	     14.36406093	      8.30639604	      6.99798687	    -28.34684268	     -3.08964945	     -3.60567552	      4.56325182	      6.03638623	     -3.47862603	     43.24868087	    -44.99543255	    -22.41872662	     79.85117545	    133.59639880	      1.71466789	     19.97858149	    -30.35732175	     32.97103409	    -39.68635715	    -30.70070892	     78.88678918	    126.82567194	     -5.93645795	     15.83076445	     -8.94482336
      0.02500000	     -4.56077481	    -19.42212716	     91.21509620	     -0.00480629	      2.00972464	      1.74616663	     45.23085445	    -10.41146199	      1.29557204	    -45.67644134	     15.43593917	      5.69258438	     11.50935221	     43.70580918	     -0.65950674	     -2.05497924	    -44.75223742	     14.38273486	      8.31767281	      7.01246363	    -28.53319418	     -3.11541411	     -3.59786262	      4.56233023	      6.05569938	     -3.47635904	     43.48185705	    -44.97066663	    -22.53125542	     79.97119390	    133.59293024	      1.71832364	     20.00197135	    -30.34822931	     33.18012920	    -39.72062515	    -30.70346354	     79.03280075	    126.85522957	     -5.92972775	     15.89383291	     -8.94951217
